# xmcd
#
# Track frame offsets:
#	150
#	15132
#	28867
#	42407
#	56112
#	68962
#	79650
#	91942
#	104857
#	120070
#	133640
#	143215
#	153292
#	165362
#	178250
#	190292
#	201150
#	213227
#	227342
#	240442
#	252225
#	264615
#	276872
#	288430
#	298555
#
# Disc length: 4176 seconds
#
# Revision: 0
# Processed by: cddbd v1.5.1PL0 Copyright (c) Steve Scherf et al.
# Submitted via: audiograbber 1.83.01
#
DISCID=62104e19
DTITLE=Various Artist - Shades of Country Vol 3
DYEAR=1900
DGENRE=Country
TTITLE0=The Kingston Trio - Tom Dooley
TTITLE1=Patti Page - Change Partner
TTITLE2=Ray Price - Heartaches by the Number
TTITLE3=Four Aces - Love is a many splendored thing
TTITLE4=Betty Everett with Jerry Butler - Let It Be Me
TTITLE5=Frankie Avalon - Venus
TTITLE6=BJ Thomas - Hooked on a Feeling
TTITLE7=Claude King - In The Misty Moonlight
TTITLE8=Patti Page - I Went To Your Wedding
TTITLE9=Shep and The Limelites - Daddy Home
TTITLE10=Skeeter Davis - Am I That Easy To Forget
TTITLE11=Frankie Laine - I Believe
TTITLE12=Wanda Jackson - Right Or Wrong
TTITLE13=Claude King - Wolverton Mountain
TTITLE14=Jack Greene - There Goes My Everything
TTITLE15=The Teddy Bears - To Know Him Is To Love Him
TTITLE16=Donna Fargo - Funny Face
TTITLE17=Barbara Fairchild - Teddy Bear Song
TTITLE18=Pat Boone - I'll Be Home
TTITLE19=Kitty Wells - Amigo Guitar
TTITLE20=Ketty Lester - Love Letter
TTITLE21=Frankie Laine - High Noon
TTITLE22=Sammi Smith - Help me make it through the night
TTITLE23=Paul Evan - Seven Little Girls Sitting in the Back Seat
TTITLE24=BJ Thomas - I'm so lonesome I could cry
EXTD=SNS Production (some local company)
EXTT0=
EXTT1=
EXTT2=
EXTT3=
EXTT4=
EXTT5=
EXTT6=
EXTT7=
EXTT8=
EXTT9=
EXTT10=
EXTT11=
EXTT12=
EXTT13=
EXTT14=
EXTT15=
EXTT16=
EXTT17=
EXTT18=
EXTT19=
EXTT20=
EXTT21=
EXTT22=
EXTT23=
EXTT24=
PLAYORDER=
